<?xml version="1.0" encoding="UTF-8"?>
<svg version="1.1" xmlns="http://www.w3.org/2000/svg" width="64" height="64">
<path d="M0 0 C21.12 0 42.24 0 64 0 C64 21.12 64 42.24 64 64 C42.88 64 21.76 64 0 64 C0 42.88 0 21.76 0 0 Z " fill="#FF6D39" transform="translate(0,0)"/>
<path d="M0 0 C4.10531192 3.1236069 5.87534868 5.99018957 7 11 C7 12.98 7 14.96 7 17 C0.4 17 -6.2 17 -13 17 C-11.34922098 20.75170424 -11.34922098 20.75170424 -9 24 C-3.46449693 24.48323069 -3.46449693 24.48323069 1.5 22.5 C1.995 22.005 2.49 21.51 3 21 C3.99 21.99 4.98 22.98 6 24 C5.0195412 26.58484592 4.06077857 27.94843031 1.9375 29.75 C-2.1211451 31.47708302 -5.64999401 31.5784161 -10 31 C-14.17548258 29.23701846 -16.50710417 26.75219372 -19 23 C-19.53125 19.44140625 -19.53125 19.44140625 -19.5 15.5625 C-19.51546875 13.64630859 -19.51546875 13.64630859 -19.53125 11.69140625 C-18.9196955 7.44200181 -17.7047283 5.29821185 -15 2 C-9.94500705 -1.01355349 -5.56509614 -1.90569469 0 0 Z " fill="#FFF9F7" transform="translate(25,16)"/>
<path d="M0 0 C7.59 0 15.18 0 23 0 C23 6.29503145 22.02465909 8.03614753 18.25 12.5 C17.35752654 13.59224223 16.466885 14.685984 15.578125 15.78125 C15.18012695 16.25626953 14.78212891 16.73128906 14.37207031 17.22070312 C12.44770752 19.71621131 10.74803039 22.37795442 9 25 C13.95 25 18.9 25 24 25 C24 26.98 24 28.96 24 31 C15.75 31 7.5 31 -1 31 C0.1248001 23.1263993 0.1248001 23.1263993 2.43359375 20.359375 C3.1596582 19.46605469 3.1596582 19.46605469 3.90039062 18.5546875 C4.40763672 17.95914063 4.91488281 17.36359375 5.4375 16.75 C6.43683297 15.53698124 7.43555394 14.32345796 8.43359375 13.109375 C8.87759521 12.58311523 9.32159668 12.05685547 9.77905273 11.51464844 C10.93921536 10.07540651 11.97457031 8.53814453 13 7 C8.71 6.67 4.42 6.34 0 6 C0 4.02 0 2.04 0 0 Z " fill="#FFF5F2" transform="translate(35,16)"/>
<path d="M0 0 C3.0625 0.375 3.0625 0.375 4.9375 2.1875 C6.0625 4.375 6.0625 4.375 6.0625 7.375 C2.1025 7.375 -1.8575 7.375 -5.9375 7.375 C-4.5794214 0.58460699 -4.5794214 0.58460699 0 0 Z " fill="#FF7647" transform="translate(18.9375,20.625)"/>
</svg>
